<svg width="24" height="24" viewBox="0 0 24 24" fill="none" xmlns="http://www.w3.org/2000/svg">
<path d="M1.5 12C1.5 6.20101 6.20101 1.5 12 1.5C17.799 1.5 22.5 6.20101 22.5 12C22.5 17.799 17.799 22.5 12 22.5C6.20101 22.5 1.5 17.799 1.5 12Z" fill="#172A73"/>
<path d="M4.18164 7.30859V7.7554L5.81509 8.01258C6.9725 8.1948 7.90532 9.06476 8.17499 10.2134L10.0871 18.3583C10.1345 18.5598 10.3131 18.7022 10.5187 18.7022H13.2019C13.3789 18.7022 13.539 18.5961 13.6091 18.4324L18.2377 7.62049C18.3009 7.47301 18.1936 7.30859 18.0342 7.30859H15.5619C15.3834 7.30859 15.2223 7.41646 15.1531 7.58228L12.0524 15.016L10.8155 8.40084C10.6971 7.7674 10.148 7.30859 9.50826 7.30859H4.18164Z" fill="white"/>
</svg>
