<svg width="24" height="24" viewBox="0 0 24 24" fill="none" xmlns="http://www.w3.org/2000/svg">
<g id="lyrics">
<mask id="mask0_2383_6796" style="mask-type:alpha" maskUnits="userSpaceOnUse" x="0" y="0" width="24" height="24">
<rect id="Bounding box" width="24" height="24" fill="#D9D9D9"/>
</mask>
<g mask="url(#mask0_2383_6796)">
<path id="lyrics_2" d="M2 22V4C2 3.45 2.19583 2.97917 2.5875 2.5875C2.97917 2.19583 3.45 2 4 2H15C15.55 2 16.0208 2.19583 16.4125 2.5875C16.8042 2.97917 17 3.45 17 4V4.425C16.6 4.60833 16.2333 4.83333 15.9 5.1C15.5667 5.36667 15.2667 5.66667 15 6V4H4V16H15V12C15.2667 12.3333 15.5667 12.6333 15.9 12.9C16.2333 13.1667 16.6 13.3917 17 13.575V16C17 16.55 16.8042 17.0208 16.4125 17.4125C16.0208 17.8042 15.55 18 15 18H6L2 22ZM6 14H10V12H6V14ZM19 12C18.1667 12 17.4583 11.7083 16.875 11.125C16.2917 10.5417 16 9.83333 16 9C16 8.16667 16.2917 7.45833 16.875 6.875C17.4583 6.29167 18.1667 6 19 6C19.1833 6 19.3583 6.01667 19.525 6.05C19.6917 6.08333 19.85 6.125 20 6.175V1H24V3H22V9C22 9.83333 21.7083 10.5417 21.125 11.125C20.5417 11.7083 19.8333 12 19 12ZM6 11H13V9H6V11ZM6 8H13V6H6V8Z" fill="white"/>
</g>
</g>
</svg>
