<svg width="94" height="20" viewBox="0 0 94 20" fill="none" xmlns="http://www.w3.org/2000/svg">
<mask id="mask0_2171_3813" style="mask-type:alpha" maskUnits="userSpaceOnUse" x="0" y="0" width="94" height="21">
<path d="M87.9441 14.7217C86.8628 14.7217 85.8871 14.491 85.017 14.0295C84.1597 13.568 83.4807 12.9088 82.9796 12.0517C82.4917 11.1946 82.248 10.1926 82.248 9.04547C82.248 7.91151 82.4986 6.916 82.9997 6.05898C83.5009 5.18875 84.1862 4.52285 85.0563 4.06138C85.9269 3.5999 86.9026 3.36914 87.9834 3.36914C89.0648 3.36914 90.0405 3.5999 90.9105 4.06138C91.7811 4.52285 92.4665 5.18875 92.9676 6.05898C93.4687 6.916 93.7193 7.91151 93.7193 9.04547C93.7193 10.1794 93.4624 11.1815 92.948 12.0517C92.4468 12.9088 91.7546 13.568 90.8713 14.0295C90.0012 14.491 89.0255 14.7217 87.9441 14.7217ZM87.9441 11.7946C88.5902 11.7946 89.1375 11.5573 89.5855 11.0826C90.0474 10.6079 90.2778 9.92887 90.2778 9.04547C90.2778 8.16202 90.0537 7.483 89.6052 7.00831C89.1704 6.53362 88.6295 6.29633 87.9834 6.29633C87.3246 6.29633 86.7773 6.53362 86.342 7.00831C85.9067 7.46978 85.6896 8.14886 85.6896 9.04547C85.6896 9.92887 85.9003 10.6079 86.3224 11.0826C86.7571 11.5573 87.2981 11.7946 87.9441 11.7946Z" fill="white"/>
<path d="M77.8411 5.36621C78.2365 4.75965 78.7308 4.28502 79.3243 3.94219C79.9172 3.5862 80.5766 3.4082 81.3017 3.4082V6.98803H80.3722C79.5286 6.98803 78.8959 7.1726 78.4738 7.54176C78.0518 7.89781 77.8411 8.53069 77.8411 9.44047V14.563H74.459V3.52685H77.8411V5.36621Z" fill="white"/>
<path d="M72.6987 5.14857C72.6987 5.95286 72.514 6.69123 72.145 7.36367C71.7756 8.02293 71.2086 8.55698 70.4442 8.96568C69.6792 9.37444 68.7301 9.57882 67.5961 9.57882H65.4993V14.5629H62.1172V0.678711H67.5961C68.7035 0.678711 69.6394 0.869871 70.4044 1.25225C71.1693 1.63462 71.7427 2.16208 72.1249 2.83451C72.5076 3.50695 72.6987 4.27833 72.6987 5.14857ZM67.3387 6.88903C67.9847 6.88903 68.4662 6.73736 68.7826 6.43414C69.099 6.13086 69.2572 5.70235 69.2572 5.14857C69.2572 4.59478 69.099 4.16622 68.7826 3.86299C68.4662 3.55972 67.9847 3.4081 67.3387 3.4081H65.4993V6.88903H67.3387Z" fill="white"/>
<path d="M43.8301 9.02567C43.8301 7.89171 44.0408 6.89625 44.4629 6.03918C44.8982 5.18212 45.4848 4.52285 46.2232 4.06138C46.9616 3.5999 47.7855 3.36914 48.6954 3.36914C49.4731 3.36914 50.152 3.52739 50.7323 3.84383C51.3258 4.16027 51.7807 4.57562 52.0971 5.08986V3.52739H55.4792V14.5635H52.0971V13.001C51.7674 13.5153 51.3061 13.9306 50.7126 14.2471C50.1324 14.5635 49.4534 14.7217 48.6757 14.7217C47.7791 14.7217 46.9616 14.491 46.2232 14.0295C45.4848 13.5548 44.8982 12.889 44.4629 12.032C44.0408 11.1617 43.8301 10.1596 43.8301 9.02567ZM52.0971 9.04547C52.0971 8.20157 51.8598 7.53572 51.3852 7.04786C50.9239 6.56001 50.3564 6.31608 49.6843 6.31608C49.0118 6.31608 48.4384 6.56001 47.9633 7.04786C47.502 7.52255 47.2711 8.18182 47.2711 9.02567C47.2711 9.86952 47.502 10.542 47.9633 11.043C48.4384 11.5309 49.0118 11.7748 49.6843 11.7748C50.3564 11.7748 50.9239 11.5309 51.3852 11.043C51.8598 10.5552 52.0971 9.88932 52.0971 9.04547Z" fill="white"/>
<path d="M35.2715 3.36914C36.0498 3.36914 36.7287 3.52739 37.309 3.84383C37.9019 4.16027 38.3569 4.57562 38.6733 5.08986V3.52739H42.0553V14.5438C42.0553 15.559 41.851 16.4754 41.4422 17.2929C41.0467 18.1236 40.4336 18.7828 39.6028 19.2707C38.7858 19.7586 37.7639 20.0025 36.5376 20.0025C34.9026 20.0025 33.5776 19.6135 32.5621 18.8356C31.5471 18.0708 30.9668 17.0292 30.8214 15.7106H34.1642C34.2698 16.1326 34.5198 16.4622 34.9159 16.6996C35.3114 16.9501 35.7992 17.0753 36.3794 17.0753C37.078 17.0753 37.6317 16.871 38.0405 16.4622C38.4625 16.0667 38.6733 15.4271 38.6733 14.5438V12.9813C38.3436 13.4955 37.8892 13.9174 37.309 14.2471C36.7287 14.5635 36.0498 14.7217 35.2715 14.7217C34.3616 14.7217 33.5378 14.491 32.7993 14.0295C32.0609 13.5548 31.4743 12.889 31.039 12.032C30.617 11.1617 30.4062 10.1596 30.4062 9.02567C30.4062 7.89171 30.617 6.89625 31.039 6.03918C31.4743 5.18212 32.0609 4.52285 32.7993 4.06138C33.5378 3.5999 34.3616 3.36914 35.2715 3.36914ZM38.6733 9.04547C38.6733 8.20157 38.436 7.53572 37.9614 7.04786C37.5001 6.56001 36.9331 6.31608 36.2605 6.31608C35.5879 6.31608 35.0146 6.56001 34.54 7.04786C34.0782 7.52255 33.8478 8.18182 33.8478 9.02567C33.8478 9.86952 34.0782 10.542 34.54 11.043C35.0146 11.5309 35.5879 11.7748 36.2605 11.7748C36.9331 11.7748 37.5001 11.5309 37.9614 11.043C38.436 10.5552 38.6733 9.88932 38.6733 9.04547Z" fill="white"/>
<path d="M29.2945 8.86748C29.2945 9.18392 29.2749 9.51353 29.2351 9.85635H21.5812C21.6337 10.542 21.8514 11.0694 22.2336 11.4386C22.6291 11.7946 23.1106 11.9726 23.6775 11.9726C24.5211 11.9726 25.1082 11.6166 25.4379 10.9046H29.0371C28.8528 11.6298 28.5163 12.2825 28.0284 12.8626C27.5538 13.4428 26.954 13.8976 26.2288 14.2273C25.5037 14.5569 24.6925 14.7217 23.7959 14.7217C22.7151 14.7217 21.7521 14.491 20.9086 14.0295C20.0645 13.568 19.4052 12.9088 18.9306 12.0517C18.456 11.1946 18.2188 10.1926 18.2188 9.04547C18.2188 7.89834 18.4497 6.89625 18.911 6.03918C19.3856 5.18212 20.0449 4.52285 20.889 4.06138C21.7325 3.5999 22.7018 3.36914 23.7959 3.36914C24.864 3.36914 25.8137 3.59332 26.644 4.04163C27.4747 4.48994 28.1208 5.1294 28.5826 5.96009C29.0572 6.79077 29.2945 7.7599 29.2945 8.86748ZM25.8333 7.97744C25.8333 7.39727 25.6353 6.9358 25.2398 6.59297C24.8444 6.25015 24.3501 6.07873 23.7566 6.07873C23.1897 6.07873 22.7082 6.24356 22.3127 6.57317C21.9305 6.90283 21.6932 7.37089 21.6008 7.97744H25.8333Z" fill="white"/>
<path d="M16.4597 0.678711V14.5629H13.0777V6.23634L9.97268 14.5629H7.24355L4.11841 6.21654V14.5629H0.736328V0.678711H4.73155L8.62803 10.2909L12.4847 0.678711H16.4597Z" fill="white"/>
</mask>
<g mask="url(#mask0_2171_3813)">
<rect x="0.722656" y="0.677734" width="93.0059" height="19.3231" fill="url(#paint0_linear_2171_3813)"/>
</g>
<defs>
<linearGradient id="paint0_linear_2171_3813" x1="-22.98" y1="24.874" x2="-12.0965" y2="50.3516" gradientUnits="userSpaceOnUse">
<stop stop-color="#00CCD0"/>
<stop offset="0.522166" stop-color="#0031D0"/>
<stop offset="1" stop-color="#D9118D"/>
</linearGradient>
</defs>
</svg>
