<svg width="50" height="35" viewBox="0 0 50 35" fill="none" xmlns="http://www.w3.org/2000/svg">
<path d="M14.6727 14.744L13.7606 13.8301L0.230469 0.239258H15.5886L22.3059 7.03549L14.6758 14.7481L14.6727 14.744ZM14.6671 12.5352L20.112 7.03708L19.947 6.86663L14.9461 1.80066H3.98451L14.6671 12.5352Z" fill="#FF0092"/>
<path d="M0.230469 34.278L18.3868 15.9253L23.4834 10.7745L24.9184 9.32358L33.9053 0.239258H49.2635L32.3746 17.2058L49.265 34.278H34.1181L24.7478 24.8648L15.3758 34.2788L0.230469 34.278ZM26.0161 23.93L34.7287 32.6822L45.6999 32.9135L30.1735 17.205L45.5094 1.80066H34.5478L26.0129 10.4352L24.5779 11.8878L18.0568 18.4847L3.79558 32.9135L14.7667 32.6822L24.7478 22.6559L26.0161 23.93Z" fill="#6DFFFF"/>
<path d="M14.4989 14.9162L13.5916 14.0014L0.0758078 0.424166C0.0413779 0.389315 0.0179752 0.345022 0.00855348 0.296858C-0.000868208 0.248694 0.00410436 0.198809 0.0228491 0.153475C0.0415938 0.108142 0.0732787 0.0693849 0.113907 0.0420772C0.154535 0.0147693 0.202296 0.00012898 0.25119 2.47631e-07H15.5854C15.6181 -4.62022e-05 15.6504 0.0064425 15.6805 0.0190848C15.7107 0.0317271 15.7379 0.0502704 15.7608 0.0736296L22.4701 6.86104C22.5161 6.90754 22.542 6.9704 22.542 7.0359C22.542 7.10146 22.5161 7.16432 22.4701 7.21077L14.8488 14.9145C14.8022 14.9608 14.7394 14.9868 14.6738 14.9868C14.6083 14.9868 14.5454 14.9608 14.4989 14.9145V14.9162ZM14.8416 12.019L19.6034 7.21156C19.6494 7.16496 19.6752 7.10199 19.6752 7.03633C19.6752 6.97066 19.6494 6.90765 19.6034 6.86104L14.9182 2.11522C14.8951 2.0919 14.8677 2.0734 14.8374 2.06077C14.8072 2.04813 14.7748 2.04162 14.742 2.04159H5.1588C5.10973 2.04134 5.0617 2.05575 5.02082 2.08299C4.97995 2.11023 4.94808 2.14908 4.92926 2.19457C4.91046 2.24006 4.90555 2.29014 4.91519 2.33844C4.92484 2.38673 4.94858 2.43105 4.9834 2.46575L14.4909 12.0198C14.5139 12.0429 14.5413 12.0612 14.5715 12.0737C14.6016 12.0861 14.6339 12.0925 14.6664 12.0924C14.699 12.0924 14.7312 12.0858 14.7613 12.0732C14.7914 12.0607 14.8187 12.0422 14.8416 12.019Z" fill="#FF0092"/>
<path d="M0.248071 34.5189C0.19911 34.519 0.151237 34.5044 0.110487 34.4772C0.0697369 34.45 0.0379417 34.4112 0.0190983 34.3658C0.000254859 34.3205 -0.00478798 34.2705 0.00460803 34.2223C0.014004 34.174 0.0374141 34.1297 0.0718916 34.0948L18.2139 15.7565L23.3096 10.6057L24.7446 9.15476L33.7291 0.0736296C33.7522 0.0503171 33.7797 0.0318126 33.8099 0.0191774C33.8401 0.00654221 33.8726 2.45255e-05 33.9053 0H49.2387C49.2877 0.000128732 49.3354 0.014769 49.3761 0.0420767C49.4167 0.0693844 49.4484 0.108141 49.4671 0.153475C49.4859 0.198809 49.4908 0.248694 49.4814 0.296858C49.472 0.345022 49.4486 0.389315 49.4141 0.424166L32.8825 17.0322C32.8364 17.0789 32.8105 17.1421 32.8105 17.2078C32.8105 17.2737 32.8364 17.3368 32.8825 17.3836L49.4173 34.0948C49.4518 34.1297 49.4752 34.174 49.4846 34.2223C49.494 34.2705 49.489 34.3205 49.4701 34.3658C49.4513 34.4112 49.4195 34.45 49.3787 34.4772C49.338 34.5044 49.2901 34.519 49.2412 34.5189H34.1198C34.0871 34.5189 34.0549 34.5123 34.0247 34.4997C33.9947 34.487 33.9674 34.4686 33.9444 34.4453L24.92 25.381C24.8735 25.3345 24.8106 25.3084 24.745 25.3084C24.6794 25.3084 24.6165 25.3345 24.5701 25.381L15.5449 34.4461C15.5219 34.4694 15.4946 34.4879 15.4645 34.5005C15.4344 34.5131 15.4021 34.5197 15.3695 34.5198L0.248071 34.5189ZM26.1796 23.7612L34.756 32.3741C34.8014 32.4194 34.8625 32.4455 34.9265 32.4469L44.4978 32.6486C44.5472 32.6498 44.5958 32.6362 44.6373 32.6094C44.6789 32.5827 44.7116 32.544 44.731 32.4984C44.7505 32.4529 44.7559 32.4025 44.7466 32.3538C44.7373 32.3051 44.7137 32.2603 44.6788 32.2253L30.0062 17.3811C29.9599 17.3344 29.9339 17.2713 29.9339 17.2054C29.9339 17.1396 29.9599 17.0765 30.0062 17.0298L44.5049 2.46415C44.5394 2.4293 44.5628 2.38501 44.5722 2.33685C44.5816 2.28868 44.5767 2.2388 44.5579 2.19347C44.5392 2.14813 44.5075 2.10938 44.4669 2.08206C44.4262 2.05476 44.3785 2.04012 44.3296 2.03999H34.7471C34.7144 2.04001 34.682 2.04653 34.6517 2.05917C34.6215 2.0718 34.5941 2.09031 34.571 2.11362L26.1796 10.6049L24.7446 12.0575L18.2235 18.6544L4.81447 32.2253C4.77956 32.2603 4.75593 32.3051 4.74661 32.3538C4.73729 32.4025 4.74273 32.4529 4.7622 32.4984C4.78168 32.544 4.81431 32.5827 4.85588 32.6094C4.89745 32.6362 4.94606 32.6498 4.99544 32.6486L14.5667 32.4469C14.6305 32.4457 14.6914 32.4196 14.7365 32.3741L24.574 22.4927C24.6205 22.4462 24.6834 22.4201 24.749 22.4201C24.8146 22.4201 24.8775 22.4462 24.924 22.4927L26.1796 23.7612Z" fill="url(#paint0_linear_2171_3808)"/>
<defs>
<linearGradient id="paint0_linear_2171_3808" x1="10.8501" y1="3.15859" x2="48.2489" y2="40.5574" gradientUnits="userSpaceOnUse">
<stop offset="0.205347" stop-color="#FF0092"/>
<stop offset="0.512609" stop-color="#0031D0"/>
<stop offset="0.848677" stop-color="#00CCD0"/>
</linearGradient>
</defs>
</svg>
